<?xml version="1.0" encoding="UTF-8" standalone="no"?>
<!-- Created with Digital by H.Neemann -->
<!-- created: Sat Nov 09 00:34:51 IRST 2024 -->

<svg
   xmlns:svg="http://www.w3.org/2000/svg"
   xmlns="http://www.w3.org/2000/svg"
   width="103.65mm"
   height="86.25mm"
   viewBox="1191 -9 691 575">
<g stroke-linecap="square">
<path d="M 1780,480 L 1800,480 L 1800,560 L 1460,560 L 1220,560 L 1220,200 L 1420,200" stroke="#0000b2" stroke-width="4.0" fill="none"/>
<path d="M 1540,480 L 1620,480" stroke="#0000b2" stroke-width="4.0" fill="none"/>
<path d="M 1640,440 L 1640,320 L 1720,320 L 1720,220" stroke="#0000b2" stroke-width="4.0" fill="none"/>
<path d="M 1220,0 L 1240,0 L 1480,0 L 1880,0" stroke="#0000b2" stroke-width="4.0" fill="none"/>
<path d="M 1500,20 L 1500,100 L 1540,100" stroke="#0000b2" stroke-width="4.0" fill="none"/>
<path d="M 1580,100 L 1600,100" stroke="#0000b2" stroke-width="4.0" fill="none"/>
<path d="M 1260,20 L 1260,100 L 1320,100" stroke="#0000b2" stroke-width="4.0" fill="none"/>
<path d="M 1340,420 L 1360,420" stroke="#0000b2" stroke-width="4.0" fill="none"/>
<path d="M 1280,140 L 1280,420 L 1300,420" stroke="#0000b2" stroke-width="4.0" fill="none"/>
<path d="M 1420,520 L 1480,520" stroke="#0000b2" stroke-width="4.0" fill="none"/>
<path d="M 1220,40 L 1280,40 L 1880,40" stroke="#0000b2" stroke-width="4.0" fill="none"/>
<path d="M 1480,0 L 1480,140 L 1600,140" stroke="#0000b2" stroke-width="4.0" fill="none"/>
<path d="M 1280,40 L 1280,140 L 1320,140" stroke="#0000b2" stroke-width="4.0" fill="none"/>
<path d="M 1660,460 L 1720,460" stroke="#0000b2" stroke-width="4.0" fill="none"/>
<path d="M 1460,560 L 1460,460 L 1480,460" stroke="#0000b2" stroke-width="4.0" fill="none"/>
<path d="M 1660,240 L 1680,240 L 1680,220 L 1700,220" stroke="#0000b2" stroke-width="4.0" fill="none"/>
<path d="M 1680,120 L 1680,180 L 1700,180" stroke="#0000b2" stroke-width="4.0" fill="none"/>
<path d="M 1220,20 L 1260,20 L 1500,20 L 1880,20" stroke="#0000b2" stroke-width="4.0" fill="none"/>
<path d="M 1440,340 L 1460,340 L 1580,340 L 1580,440 L 1620,440" stroke="#0000b2" stroke-width="4.0" fill="none"/>
<path d="M 1860,340 L 1880,340 L 1880,540 L 1700,540 L 1700,500 L 1720,500" stroke="#0000b2" stroke-width="4.0" fill="none"/>
<path d="M 1240,0 L 1240,500 L 1360,500" stroke="#0000b2" stroke-width="4.0" fill="none"/>
<path d="M 1660,120 L 1680,120 L 1760,120 L 1760,360 L 1800,360 L 1804,360" stroke="#0000b2" stroke-width="4.0" fill="none"/>
<path d="M 1380,120 L 1420,120 L 1420,160 L 1580,160 L 1780,160 L 1780,320 L 1800,320 L 1804,320" stroke="#0000b2" stroke-width="4.0" fill="none"/>
<path d="M 1420,440 L 1440,440 L 1440,480 L 1480,480" stroke="#0000b2" stroke-width="4.0" fill="none"/>
<path d="M 1480,220 L 1540,220 L 1540,260 L 1600,260" stroke="#0000b2" stroke-width="4.0" fill="none"/>
<path d="M 1580,160 L 1580,220 L 1600,220" stroke="#0000b2" stroke-width="4.0" fill="none"/>
<path d="M 1340,540 L 1360,540" stroke="#0000b2" stroke-width="4.0" fill="none"/>
<path d="M 1360,460 L 1260,460 L 1260,540 L 1300,540" stroke="#0000b2" stroke-width="4.0" fill="none"/>
<path d="M 1260,100 L 1260,460" stroke="#0000b2" stroke-width="4.0" fill="none"/>
<path d="M 1480,440 L 1460,440 L 1460,340 L 1460,260 L 1400,260 L 1400,220 L 1420,220" stroke="#0000b2" stroke-width="4.0" fill="none"/>
<g>
<circle cx="1240.0" cy="0.0" r="4.0" stroke="#0000b2" stroke-width="4.0" fill="#0000b2" />
<circle cx="1480.0" cy="0.0" r="4.0" stroke="#0000b2" stroke-width="4.0" fill="#0000b2" />
<circle cx="1580.0" cy="160.0" r="4.0" stroke="#0000b2" stroke-width="4.0" fill="#0000b2" />
<circle cx="1260.0" cy="100.0" r="4.0" stroke="#0000b2" stroke-width="4.0" fill="#0000b2" />
<circle cx="1280.0" cy="40.0" r="4.0" stroke="#0000b2" stroke-width="4.0" fill="#0000b2" />
<circle cx="1280.0" cy="140.0" r="4.0" stroke="#0000b2" stroke-width="4.0" fill="#0000b2" />
<circle cx="1260.0" cy="460.0" r="4.0" stroke="#0000b2" stroke-width="4.0" fill="#0000b2" />
<circle cx="1460.0" cy="560.0" r="4.0" stroke="#0000b2" stroke-width="4.0" fill="#0000b2" />
<circle cx="1260.0" cy="20.0" r="4.0" stroke="#0000b2" stroke-width="4.0" fill="#0000b2" />
<circle cx="1500.0" cy="20.0" r="4.0" stroke="#0000b2" stroke-width="4.0" fill="#0000b2" />
<circle cx="1460.0" cy="340.0" r="4.0" stroke="#0000b2" stroke-width="4.0" fill="#0000b2" />
<circle cx="1680.0" cy="120.0" r="4.0" stroke="#0000b2" stroke-width="4.0" fill="#0000b2" />
</g>
<g>
<path d="M 1481,430 L 1539,430 L 1539,530 L 1481,530 Z" stroke="#000000" stroke-width="4.0" fill="none"/>
<text text-anchor="start" x="1484.0" y="446.75" fill="#808080" style="font-size:18px">A</text>
<text text-anchor="start" x="1484.0" y="466.75" fill="#808080" style="font-size:18px">Din</text>
<text text-anchor="start" x="1484.0" y="486.75" fill="#808080" style="font-size:18px">str</text>
<path d="M 1481,507 L 1488,500 L 1481,493" stroke="#000000" stroke-width="2.0" fill="none"/>
<text text-anchor="start" x="1491.0" y="506.75" fill="#808080" style="font-size:18px">C</text>
<text text-anchor="start" x="1484.0" y="526.75" fill="#808080" style="font-size:18px">ld</text>
<text text-anchor="end" x="1536.0" y="486.75" fill="#808080" style="font-size:18px">D</text>
<text text-anchor="middle" x="1510.0" y="547.5" fill="#808080" style="font-size:18px">RAM</text>
<circle cx="1480.0" cy="440.0" r="2.0" stroke="#0000b2" stroke-width="4.0" fill="#0000b2" />
<circle cx="1480.0" cy="460.0" r="2.0" stroke="#0000b2" stroke-width="4.0" fill="#0000b2" />
<circle cx="1480.0" cy="480.0" r="2.0" stroke="#0000b2" stroke-width="4.0" fill="#0000b2" />
<circle cx="1480.0" cy="500.0" r="2.0" stroke="#0000b2" stroke-width="4.0" fill="#0000b2" />
<circle cx="1480.0" cy="520.0" r="2.0" stroke="#0000b2" stroke-width="4.0" fill="#0000b2" />
<circle cx="1540.0" cy="480.0" r="2.0" stroke="#b20000" stroke-width="4.0" fill="#b20000" />
</g>
<g>
<path d="M 1721,450 L 1779,450 L 1779,510 L 1721,510 Z" stroke="#000000" stroke-width="4.0" fill="none"/>
<text text-anchor="start" x="1724.0" y="466.75" fill="#808080" style="font-size:18px">D</text>
<path d="M 1721,487 L 1728,480 L 1721,473" stroke="#000000" stroke-width="2.0" fill="none"/>
<text text-anchor="start" x="1731.0" y="486.75" fill="#808080" style="font-size:18px">C</text>
<text text-anchor="start" x="1724.0" y="506.75" fill="#808080" style="font-size:18px">en</text>
<text text-anchor="end" x="1776.0" y="486.75" fill="#808080" style="font-size:18px">Q</text>
<text text-anchor="middle" x="1750.0" y="527.5" fill="#808080" style="font-size:18px">Reg</text>
<circle cx="1720.0" cy="460.0" r="2.0" stroke="#0000b2" stroke-width="4.0" fill="#0000b2" />
<circle cx="1720.0" cy="480.0" r="2.0" stroke="#0000b2" stroke-width="4.0" fill="#0000b2" />
<circle cx="1720.0" cy="500.0" r="2.0" stroke="#0000b2" stroke-width="4.0" fill="#0000b2" />
<circle cx="1780.0" cy="480.0" r="2.0" stroke="#b20000" stroke-width="4.0" fill="#b20000" />
</g>
<g>
<text text-anchor="start" x="1760.0" y="465.25" fill="#000000" style="font-size:14px">Cl</text>
</g>
<g>
<path d="M 1621,436 L 1659,445 L 1659,475 L 1621,484 Z" stroke="#000000" stroke-width="4.0" fill="none"/>
<text text-anchor="start" x="1623.0" y="455.5" fill="#808080" style="font-size:18px">0</text>
<circle cx="1640.0" cy="440.0" r="2.0" stroke="#0000b2" stroke-width="4.0" fill="#0000b2" />
<circle cx="1620.0" cy="440.0" r="2.0" stroke="#0000b2" stroke-width="4.0" fill="#0000b2" />
<circle cx="1620.0" cy="480.0" r="2.0" stroke="#0000b2" stroke-width="4.0" fill="#0000b2" />
<circle cx="1660.0" cy="460.0" r="2.0" stroke="#b20000" stroke-width="4.0" fill="#b20000" />
</g>
<g>
<path d="M 1381,310 L 1439,310 L 1439,370 L 1381,370 Z" stroke="#000000" stroke-width="4.0" fill="none"/>
<text text-anchor="middle" x="1410.0" y="302.0" fill="#000000" style="font-size:24px">R2</text>
<text text-anchor="start" x="1384.0" y="326.75" fill="#808080" style="font-size:18px">D</text>
<path d="M 1381,347 L 1388,340 L 1381,333" stroke="#000000" stroke-width="2.0" fill="none"/>
<text text-anchor="start" x="1391.0" y="346.75" fill="#808080" style="font-size:18px">C</text>
<text text-anchor="start" x="1384.0" y="366.75" fill="#808080" style="font-size:18px">en</text>
<text text-anchor="end" x="1436.0" y="346.75" fill="#808080" style="font-size:18px">Q</text>
<text text-anchor="middle" x="1410.0" y="387.5" fill="#808080" style="font-size:18px">Reg</text>
<circle cx="1380.0" cy="320.0" r="2.0" stroke="#0000b2" stroke-width="4.0" fill="#0000b2" />
<circle cx="1380.0" cy="340.0" r="2.0" stroke="#0000b2" stroke-width="4.0" fill="#0000b2" />
<circle cx="1380.0" cy="360.0" r="2.0" stroke="#0000b2" stroke-width="4.0" fill="#0000b2" />
<circle cx="1440.0" cy="340.0" r="2.0" stroke="#b20000" stroke-width="4.0" fill="#b20000" />
</g>
<g>
<text text-anchor="middle" x="1200.0" y="25.25" fill="#000000" style="font-size:14px">P</text>
</g>
<g>
<text text-anchor="middle" x="1200.0" y="45.25" fill="#000000" style="font-size:14px">Q</text>
</g>
<g>
<path d="M 1301,408 L 1319,420 L 1301,432 Z" stroke="#000000" stroke-width="4.0" fill="none"/>
<circle cx="1330.0" cy="420.0" r="9.0" stroke="#000000" stroke-width="4.0" fill="none" />
<circle cx="1300.0" cy="420.0" r="2.0" stroke="#0000b2" stroke-width="4.0" fill="#0000b2" />
<circle cx="1340.0" cy="420.0" r="2.0" stroke="#b20000" stroke-width="4.0" fill="#b20000" />
</g>
<g>
<path d="M 1390,470 L 1361,470 L 1361,410 L 1390,410 C 1400,410 1420,420 1419,440 C 1419,460 1400,470 1390,470 Z" stroke="#000000" stroke-width="4.0" fill="none"/>
<circle cx="1360.0" cy="420.0" r="2.0" stroke="#0000b2" stroke-width="4.0" fill="#0000b2" />
<circle cx="1360.0" cy="460.0" r="2.0" stroke="#0000b2" stroke-width="4.0" fill="#0000b2" />
<circle cx="1420.0" cy="440.0" r="2.0" stroke="#b20000" stroke-width="4.0" fill="#b20000" />
</g>
<g>
<text text-anchor="middle" x="1200.0" y="5.25" fill="#000000" style="font-size:14px">W</text>
</g>
<g>
<path d="M 1390,550 L 1361,550 L 1361,490 L 1390,490 C 1400,490 1420,500 1419,520 C 1419,540 1400,550 1390,550 Z" stroke="#000000" stroke-width="4.0" fill="none"/>
<circle cx="1360.0" cy="500.0" r="2.0" stroke="#0000b2" stroke-width="4.0" fill="#0000b2" />
<circle cx="1360.0" cy="540.0" r="2.0" stroke="#0000b2" stroke-width="4.0" fill="#0000b2" />
<circle cx="1420.0" cy="520.0" r="2.0" stroke="#b20000" stroke-width="4.0" fill="#b20000" />
</g>
<g>
<path d="M 1301,528 L 1319,540 L 1301,552 Z" stroke="#000000" stroke-width="4.0" fill="none"/>
<circle cx="1330.0" cy="540.0" r="9.0" stroke="#000000" stroke-width="4.0" fill="none" />
<circle cx="1300.0" cy="540.0" r="2.0" stroke="#0000b2" stroke-width="4.0" fill="#0000b2" />
<circle cx="1340.0" cy="540.0" r="2.0" stroke="#b20000" stroke-width="4.0" fill="#b20000" />
</g>
<g>
<path d="M 1739,215 L 1701,224 L 1701,176 L 1739,185 Z" stroke="#000000" stroke-width="4.0" fill="none"/>
<text text-anchor="start" x="1703.0" y="218.0" fill="#808080" style="font-size:18px">0</text>
<circle cx="1720.0" cy="220.0" r="2.0" stroke="#0000b2" stroke-width="4.0" fill="#0000b2" />
<circle cx="1700.0" cy="220.0" r="2.0" stroke="#b20000" stroke-width="4.0" fill="#b20000" />
<circle cx="1700.0" cy="180.0" r="2.0" stroke="#b20000" stroke-width="4.0" fill="#b20000" />
</g>
<g>
<path d="M 1541,88 L 1559,100 L 1541,112 Z" stroke="#000000" stroke-width="4.0" fill="none"/>
<circle cx="1570.0" cy="100.0" r="9.0" stroke="#000000" stroke-width="4.0" fill="none" />
<circle cx="1540.0" cy="100.0" r="2.0" stroke="#0000b2" stroke-width="4.0" fill="#0000b2" />
<circle cx="1580.0" cy="100.0" r="2.0" stroke="#b20000" stroke-width="4.0" fill="#b20000" />
</g>
<g>
<path d="M 1630,150 L 1601,150 L 1601,90 L 1630,90 C 1640,90 1660,100 1659,120 C 1659,140 1640,150 1630,150 Z" stroke="#000000" stroke-width="4.0" fill="none"/>
<circle cx="1600.0" cy="100.0" r="2.0" stroke="#0000b2" stroke-width="4.0" fill="#0000b2" />
<circle cx="1600.0" cy="140.0" r="2.0" stroke="#0000b2" stroke-width="4.0" fill="#0000b2" />
<circle cx="1660.0" cy="120.0" r="2.0" stroke="#b20000" stroke-width="4.0" fill="#b20000" />
</g>
<g>
<path d="M 1630,270 L 1601,270 L 1601,210 L 1630,210 C 1640,210 1660,220 1659,240 C 1659,260 1640,270 1630,270 Z" stroke="#000000" stroke-width="4.0" fill="none"/>
<circle cx="1600.0" cy="220.0" r="2.0" stroke="#0000b2" stroke-width="4.0" fill="#0000b2" />
<circle cx="1600.0" cy="260.0" r="2.0" stroke="#0000b2" stroke-width="4.0" fill="#0000b2" />
<circle cx="1660.0" cy="240.0" r="2.0" stroke="#b20000" stroke-width="4.0" fill="#b20000" />
</g>
<g>
<path d="M 1421,190 L 1479,190 L 1479,250 L 1421,250 Z" stroke="#000000" stroke-width="4.0" fill="none"/>
<text text-anchor="start" x="1424.0" y="206.75" fill="#808080" style="font-size:18px">a</text>
<text text-anchor="start" x="1424.0" y="226.75" fill="#808080" style="font-size:18px">b</text>
<text text-anchor="end" x="1476.0" y="206.75" fill="#808080" style="font-size:18px">&gt;</text>
<text text-anchor="end" x="1476.0" y="226.75" fill="#808080" style="font-size:18px">=</text>
<text text-anchor="end" x="1476.0" y="246.75" fill="#808080" style="font-size:18px">&lt;</text>
<circle cx="1420.0" cy="200.0" r="2.0" stroke="#0000b2" stroke-width="4.0" fill="#0000b2" />
<circle cx="1420.0" cy="220.0" r="2.0" stroke="#0000b2" stroke-width="4.0" fill="#0000b2" />
<circle cx="1480.0" cy="200.0" r="2.0" stroke="#b20000" stroke-width="4.0" fill="#b20000" />
<circle cx="1480.0" cy="220.0" r="2.0" stroke="#b20000" stroke-width="4.0" fill="#b20000" />
<circle cx="1480.0" cy="240.0" r="2.0" stroke="#b20000" stroke-width="4.0" fill="#b20000" />
</g>
<g>
<path d="M 1350,150 L 1321,150 L 1321,90 L 1350,90 C 1360,90 1380,100 1379,120 C 1379,140 1360,150 1350,150 Z" stroke="#000000" stroke-width="4.0" fill="none"/>
<circle cx="1320.0" cy="100.0" r="2.0" stroke="#0000b2" stroke-width="4.0" fill="#0000b2" />
<circle cx="1320.0" cy="140.0" r="2.0" stroke="#0000b2" stroke-width="4.0" fill="#0000b2" />
<circle cx="1380.0" cy="120.0" r="2.0" stroke="#b20000" stroke-width="4.0" fill="#b20000" />
</g>
<g>
<path d="M 1810,370 L 1800,370 C 1810,360 1810,320 1800,310 L 1810,310 C 1820,310 1840,320 1860,340 C 1840,360 1820,370 1810,370 Z" stroke="#000000" stroke-width="4.0" fill="none"/>
<circle cx="1800.0" cy="320.0" r="2.0" stroke="#0000b2" stroke-width="4.0" fill="#0000b2" />
<circle cx="1800.0" cy="360.0" r="2.0" stroke="#0000b2" stroke-width="4.0" fill="#0000b2" />
<circle cx="1860.0" cy="340.0" r="2.0" stroke="#b20000" stroke-width="4.0" fill="#b20000" />
</g>
</g>
</svg>