<?xml version="1.0" encoding="UTF-8" standalone="no"?>
<!-- Created with Digital by H.Neemann -->
<!-- created: Thu Nov 07 12:04:06 IRST 2024 -->

<svg
   xmlns:svg="http://www.w3.org/2000/svg"
   xmlns="http://www.w3.org/2000/svg"
   width="112.95mm"
   height="71.25mm"
   viewBox="649 411 753 475">
<g stroke-linecap="square">
<path d="M 840,880 L 840,800 L 860,800" stroke="#0000b2" stroke-width="4.0" fill="none"/>
<path d="M 680,480 L 820,480 L 900,480 L 1140,480 L 1400,480" stroke="#0000b2" stroke-width="4.0" fill="none"/>
<path d="M 1220,740 L 1280,740" stroke="#0000b2" stroke-width="4.0" fill="none"/>
<path d="M 1340,740 L 1360,740 L 1360,520 L 1160,520 L 1120,520" stroke="#0000b2" stroke-width="4.0" fill="none"/>
<path d="M 1000,580 L 1020,580 L 1120,580 L 1180,580 L 1184,580" stroke="#0000b2" stroke-width="4.0" fill="none"/>
<path d="M 680,420 L 1040,420 L 1400,420" stroke="#0000b2" stroke-width="4.0" fill="none"/>
<path d="M 1020,460 L 1020,520 L 1060,520" stroke="#0000b2" stroke-width="4.0" fill="none"/>
<path d="M 820,480 L 820,840 L 860,840" stroke="#0000b2" stroke-width="4.0" fill="none"/>
<path d="M 1020,780 L 1040,780" stroke="#0000b2" stroke-width="4.0" fill="none"/>
<path d="M 1120,580 L 1120,780 L 1160,780" stroke="#0000b2" stroke-width="4.0" fill="none"/>
<path d="M 800,620 L 840,620 L 880,620" stroke="#0000b2" stroke-width="4.0" fill="none"/>
<path d="M 920,620 L 1040,620" stroke="#0000b2" stroke-width="4.0" fill="none"/>
<path d="M 1140,480 L 1140,620 L 1180,620 L 1184,620" stroke="#0000b2" stroke-width="4.0" fill="none"/>
<path d="M 680,460 L 1020,460 L 1400,460" stroke="#0000b2" stroke-width="4.0" fill="none"/>
<path d="M 920,440 L 920,560 L 940,560" stroke="#0000b2" stroke-width="4.0" fill="none"/>
<path d="M 1020,580 L 1020,660 L 1040,660" stroke="#0000b2" stroke-width="4.0" fill="none"/>
<path d="M 1040,420 L 1040,500 L 1060,500" stroke="#0000b2" stroke-width="4.0" fill="none"/>
<path d="M 680,440 L 920,440 L 1400,440" stroke="#0000b2" stroke-width="4.0" fill="none"/>
<path d="M 1080,760 L 1160,760" stroke="#0000b2" stroke-width="4.0" fill="none"/>
<path d="M 720,600 L 740,600" stroke="#0000b2" stroke-width="4.0" fill="none"/>
<path d="M 900,480 L 900,600 L 940,600" stroke="#0000b2" stroke-width="4.0" fill="none"/>
<path d="M 1240,600 L 1260,600 L 1260,780 L 1280,780" stroke="#0000b2" stroke-width="4.0" fill="none"/>
<path d="M 1160,520 L 1160,600 L 1180,600 L 1187,600" stroke="#0000b2" stroke-width="4.0" fill="none"/>
<path d="M 920,700 L 960,700" stroke="#0000b2" stroke-width="4.0" fill="none"/>
<path d="M 1000,700 L 1020,700 L 1020,740 L 1040,740" stroke="#0000b2" stroke-width="4.0" fill="none"/>
<path d="M 840,620 L 840,540 L 1060,540" stroke="#0000b2" stroke-width="4.0" fill="none"/>
<path d="M 1060,660 L 1060,740" stroke="#0000b2" stroke-width="4.0" fill="none"/>
<path d="M 740,620 L 720,620 L 720,880 L 840,880 L 1380,880 L 1380,760" stroke="#0000b2" stroke-width="4.0" fill="none"/>
<path d="M 1160,740 L 1140,740 L 1140,680 L 1380,680 L 1380,760 L 1340,760" stroke="#0000b2" stroke-width="4.0" fill="none"/>
<g>
<circle cx="820.0" cy="480.0" r="4.0" stroke="#0000b2" stroke-width="4.0" fill="#0000b2" />
<circle cx="900.0" cy="480.0" r="4.0" stroke="#0000b2" stroke-width="4.0" fill="#0000b2" />
<circle cx="1140.0" cy="480.0" r="4.0" stroke="#0000b2" stroke-width="4.0" fill="#0000b2" />
<circle cx="1020.0" cy="580.0" r="4.0" stroke="#0000b2" stroke-width="4.0" fill="#0000b2" />
<circle cx="1120.0" cy="580.0" r="4.0" stroke="#0000b2" stroke-width="4.0" fill="#0000b2" />
<circle cx="1040.0" cy="420.0" r="4.0" stroke="#0000b2" stroke-width="4.0" fill="#0000b2" />
<circle cx="1160.0" cy="520.0" r="4.0" stroke="#0000b2" stroke-width="4.0" fill="#0000b2" />
<circle cx="840.0" cy="620.0" r="4.0" stroke="#0000b2" stroke-width="4.0" fill="#0000b2" />
<circle cx="1020.0" cy="460.0" r="4.0" stroke="#0000b2" stroke-width="4.0" fill="#0000b2" />
<circle cx="840.0" cy="880.0" r="4.0" stroke="#0000b2" stroke-width="4.0" fill="#0000b2" />
<circle cx="920.0" cy="440.0" r="4.0" stroke="#0000b2" stroke-width="4.0" fill="#0000b2" />
<circle cx="1380.0" cy="760.0" r="4.0" stroke="#0000b2" stroke-width="4.0" fill="#0000b2" />
</g>
<g>
<path d="M 1281,730 L 1339,730 L 1339,790 L 1281,790 Z" stroke="#000000" stroke-width="4.0" fill="none"/>
<text text-anchor="middle" x="1310.0" y="722.0" fill="#000000" style="font-size:24px">R1</text>
<text text-anchor="start" x="1284.0" y="746.75" fill="#808080" style="font-size:18px">D</text>
<path d="M 1281,767 L 1288,760 L 1281,753" stroke="#000000" stroke-width="2.0" fill="none"/>
<text text-anchor="start" x="1291.0" y="766.75" fill="#808080" style="font-size:18px">C</text>
<text text-anchor="start" x="1284.0" y="786.75" fill="#808080" style="font-size:18px">en</text>
<text text-anchor="end" x="1336.0" y="766.75" fill="#808080" style="font-size:18px">Q</text>
<text text-anchor="middle" x="1310.0" y="807.5" fill="#808080" style="font-size:18px">Reg</text>
<circle cx="1280.0" cy="740.0" r="2.0" stroke="#0000b2" stroke-width="4.0" fill="#0000b2" />
<circle cx="1280.0" cy="760.0" r="2.0" stroke="#0000b2" stroke-width="4.0" fill="#0000b2" />
<circle cx="1280.0" cy="780.0" r="2.0" stroke="#0000b2" stroke-width="4.0" fill="#0000b2" />
<circle cx="1340.0" cy="760.0" r="2.0" stroke="#b20000" stroke-width="4.0" fill="#b20000" />
</g>
<g>
<path d="M 1161,730 L 1219,730 L 1219,790 L 1161,790 Z" stroke="#000000" stroke-width="4.0" fill="none"/>
<text text-anchor="start" x="1164.0" y="746.75" fill="#808080" style="font-size:18px">a</text>
<text text-anchor="start" x="1164.0" y="766.75" fill="#808080" style="font-size:18px">b</text>
<text text-anchor="start" x="1164.0" y="786.75" fill="#808080" style="font-size:18px">c<tspan style="font-size:80%;baseline-shift:sub;">i</tspan></text>
<text text-anchor="end" x="1216.0" y="746.75" fill="#808080" style="font-size:18px">s</text>
<text text-anchor="end" x="1216.0" y="766.75" fill="#808080" style="font-size:18px">c<tspan style="font-size:80%;baseline-shift:sub;">o</tspan></text>
<text text-anchor="middle" x="1190.0" y="807.5" fill="#808080" style="font-size:18px">Add</text>
<circle cx="1160.0" cy="740.0" r="2.0" stroke="#0000b2" stroke-width="4.0" fill="#0000b2" />
<circle cx="1160.0" cy="760.0" r="2.0" stroke="#0000b2" stroke-width="4.0" fill="#0000b2" />
<circle cx="1160.0" cy="780.0" r="2.0" stroke="#0000b2" stroke-width="4.0" fill="#0000b2" />
<circle cx="1220.0" cy="740.0" r="2.0" stroke="#b20000" stroke-width="4.0" fill="#b20000" />
<circle cx="1220.0" cy="760.0" r="2.0" stroke="#b20000" stroke-width="4.0" fill="#b20000" />
</g>
<g>
<path d="M 1041,736 L 1079,745 L 1079,775 L 1041,784 Z" stroke="#000000" stroke-width="4.0" fill="none"/>
<text text-anchor="start" x="1043.0" y="755.5" fill="#808080" style="font-size:18px">0</text>
<circle cx="1060.0" cy="740.0" r="2.0" stroke="#0000b2" stroke-width="4.0" fill="#0000b2" />
<circle cx="1040.0" cy="740.0" r="2.0" stroke="#0000b2" stroke-width="4.0" fill="#0000b2" />
<circle cx="1040.0" cy="780.0" r="2.0" stroke="#0000b2" stroke-width="4.0" fill="#0000b2" />
<circle cx="1080.0" cy="760.0" r="2.0" stroke="#b20000" stroke-width="4.0" fill="#b20000" />
</g>
<g>
<text text-anchor="start" x="1000.0" y="785.25" fill="#000000" style="font-size:14px">1</text>
</g>
<g>
<path d="M 861,670 L 919,670 L 919,730 L 861,730 Z" stroke="#000000" stroke-width="4.0" fill="none"/>
<text text-anchor="middle" x="890.0" y="662.0" fill="#000000" style="font-size:24px">R3</text>
<text text-anchor="start" x="864.0" y="686.75" fill="#808080" style="font-size:18px">D</text>
<path d="M 861,707 L 868,700 L 861,693" stroke="#000000" stroke-width="2.0" fill="none"/>
<text text-anchor="start" x="871.0" y="706.75" fill="#808080" style="font-size:18px">C</text>
<text text-anchor="start" x="864.0" y="726.75" fill="#808080" style="font-size:18px">en</text>
<text text-anchor="end" x="916.0" y="706.75" fill="#808080" style="font-size:18px">Q</text>
<text text-anchor="middle" x="890.0" y="747.5" fill="#808080" style="font-size:18px">Reg</text>
<circle cx="860.0" cy="680.0" r="2.0" stroke="#0000b2" stroke-width="4.0" fill="#0000b2" />
<circle cx="860.0" cy="700.0" r="2.0" stroke="#0000b2" stroke-width="4.0" fill="#0000b2" />
<circle cx="860.0" cy="720.0" r="2.0" stroke="#0000b2" stroke-width="4.0" fill="#0000b2" />
<circle cx="920.0" cy="700.0" r="2.0" stroke="#b20000" stroke-width="4.0" fill="#b20000" />
</g>
<g>
<path d="M 861,790 L 919,790 L 919,850 L 861,850 Z" stroke="#000000" stroke-width="4.0" fill="none"/>
<text text-anchor="middle" x="890.0" y="782.0" fill="#000000" style="font-size:24px">R2</text>
<text text-anchor="start" x="864.0" y="806.75" fill="#808080" style="font-size:18px">D</text>
<path d="M 861,827 L 868,820 L 861,813" stroke="#000000" stroke-width="2.0" fill="none"/>
<text text-anchor="start" x="871.0" y="826.75" fill="#808080" style="font-size:18px">C</text>
<text text-anchor="start" x="864.0" y="846.75" fill="#808080" style="font-size:18px">en</text>
<text text-anchor="end" x="916.0" y="826.75" fill="#808080" style="font-size:18px">Q</text>
<text text-anchor="middle" x="890.0" y="867.5" fill="#808080" style="font-size:18px">Reg</text>
<circle cx="860.0" cy="800.0" r="2.0" stroke="#0000b2" stroke-width="4.0" fill="#0000b2" />
<circle cx="860.0" cy="820.0" r="2.0" stroke="#0000b2" stroke-width="4.0" fill="#0000b2" />
<circle cx="860.0" cy="840.0" r="2.0" stroke="#0000b2" stroke-width="4.0" fill="#0000b2" />
<circle cx="920.0" cy="820.0" r="2.0" stroke="#b20000" stroke-width="4.0" fill="#b20000" />
</g>
<g>
<path d="M 961,688 L 979,700 L 961,712 Z" stroke="#000000" stroke-width="4.0" fill="none"/>
<circle cx="990.0" cy="700.0" r="9.0" stroke="#000000" stroke-width="4.0" fill="none" />
<circle cx="960.0" cy="700.0" r="2.0" stroke="#0000b2" stroke-width="4.0" fill="#0000b2" />
<circle cx="1000.0" cy="700.0" r="2.0" stroke="#b20000" stroke-width="4.0" fill="#b20000" />
</g>
<g>
<path d="M 1079,655 L 1041,664 L 1041,616 L 1079,625 Z" stroke="#000000" stroke-width="4.0" fill="none"/>
<text text-anchor="start" x="1043.0" y="658.0" fill="#808080" style="font-size:18px">0</text>
<circle cx="1060.0" cy="660.0" r="2.0" stroke="#0000b2" stroke-width="4.0" fill="#0000b2" />
<circle cx="1040.0" cy="660.0" r="2.0" stroke="#b20000" stroke-width="4.0" fill="#b20000" />
<circle cx="1040.0" cy="620.0" r="2.0" stroke="#b20000" stroke-width="4.0" fill="#b20000" />
</g>
<g>
<path d="M 970,610 L 941,610 L 941,550 L 970,550 C 980,550 1000,560 999,580 C 999,600 980,610 970,610 Z" stroke="#000000" stroke-width="4.0" fill="none"/>
<circle cx="940.0" cy="560.0" r="2.0" stroke="#0000b2" stroke-width="4.0" fill="#0000b2" />
<circle cx="940.0" cy="600.0" r="2.0" stroke="#0000b2" stroke-width="4.0" fill="#0000b2" />
<circle cx="1000.0" cy="580.0" r="2.0" stroke="#b20000" stroke-width="4.0" fill="#b20000" />
</g>
<g>
<path d="M 741,590 L 799,590 L 799,650 L 741,650 Z" stroke="#000000" stroke-width="4.0" fill="none"/>
<text text-anchor="start" x="744.0" y="606.75" fill="#808080" style="font-size:18px">a</text>
<text text-anchor="start" x="744.0" y="626.75" fill="#808080" style="font-size:18px">b</text>
<text text-anchor="end" x="796.0" y="606.75" fill="#808080" style="font-size:18px">&gt;</text>
<text text-anchor="end" x="796.0" y="626.75" fill="#808080" style="font-size:18px">=</text>
<text text-anchor="end" x="796.0" y="646.75" fill="#808080" style="font-size:18px">&lt;</text>
<circle cx="740.0" cy="600.0" r="2.0" stroke="#0000b2" stroke-width="4.0" fill="#0000b2" />
<circle cx="740.0" cy="620.0" r="2.0" stroke="#0000b2" stroke-width="4.0" fill="#0000b2" />
<circle cx="800.0" cy="600.0" r="2.0" stroke="#b20000" stroke-width="4.0" fill="#b20000" />
<circle cx="800.0" cy="620.0" r="2.0" stroke="#b20000" stroke-width="4.0" fill="#b20000" />
<circle cx="800.0" cy="640.0" r="2.0" stroke="#b20000" stroke-width="4.0" fill="#b20000" />
</g>
<g>
<text text-anchor="start" x="1320.0" y="745.25" fill="#000000" style="font-size:14px">Cl</text>
</g>
<g>
<text text-anchor="start" x="700.0" y="605.25" fill="#000000" style="font-size:14px">0</text>
</g>
<g>
<path d="M 881,608 L 899,620 L 881,632 Z" stroke="#000000" stroke-width="4.0" fill="none"/>
<circle cx="910.0" cy="620.0" r="9.0" stroke="#000000" stroke-width="4.0" fill="none" />
<circle cx="880.0" cy="620.0" r="2.0" stroke="#0000b2" stroke-width="4.0" fill="#0000b2" />
<circle cx="920.0" cy="620.0" r="2.0" stroke="#b20000" stroke-width="4.0" fill="#b20000" />
</g>
<g>
<path d="M 1090,550 L 1061,550 L 1061,490 L 1090,490 C 1100,490 1120,500 1119,520 C 1119,540 1100,550 1090,550 Z" stroke="#000000" stroke-width="4.0" fill="none"/>
<circle cx="1060.0" cy="500.0" r="2.0" stroke="#0000b2" stroke-width="4.0" fill="#0000b2" />
<circle cx="1060.0" cy="520.0" r="2.0" stroke="#0000b2" stroke-width="4.0" fill="#0000b2" />
<circle cx="1060.0" cy="540.0" r="2.0" stroke="#0000b2" stroke-width="4.0" fill="#0000b2" />
<circle cx="1120.0" cy="520.0" r="2.0" stroke="#b20000" stroke-width="4.0" fill="#b20000" />
</g>
<g>
<text text-anchor="start" x="660.0" y="425.25" fill="#000000" style="font-size:14px">z</text>
</g>
<g>
<text text-anchor="start" x="660.0" y="445.25" fill="#000000" style="font-size:14px">y</text>
</g>
<g>
<text text-anchor="middle" x="660.0" y="465.25" fill="#000000" style="font-size:14px">T1</text>
</g>
<g>
<text text-anchor="middle" x="660.0" y="485.25" fill="#000000" style="font-size:14px">T2</text>
</g>
<g>
<path d="M 1190,630 L 1180,630 C 1190,620 1190,580 1180,570 L 1190,570 C 1200,570 1220,580 1240,600 C 1220,620 1200,630 1190,630 Z" stroke="#000000" stroke-width="4.0" fill="none"/>
<circle cx="1180.0" cy="580.0" r="2.0" stroke="#0000b2" stroke-width="4.0" fill="#0000b2" />
<circle cx="1180.0" cy="600.0" r="2.0" stroke="#0000b2" stroke-width="4.0" fill="#0000b2" />
<circle cx="1180.0" cy="620.0" r="2.0" stroke="#0000b2" stroke-width="4.0" fill="#0000b2" />
<circle cx="1240.0" cy="600.0" r="2.0" stroke="#b20000" stroke-width="4.0" fill="#b20000" />
</g>
<g>
<text text-anchor="middle" x="1060.0" y="770.5" fill="#000000" style="font-size:14px">MX</text>
</g>
<g>
<text text-anchor="middle" x="1060.0" y="640.0" fill="#000000" style="font-size:14px">EN</text>
</g>
</g>
</svg>